# xmcd CD database file
#
# Track frame offsets:
#	150
#	17790
#	45812
#	62725
#	125702
#	144615
#	179817
#	213945
#	247737
#
# Disc length: 3740 seconds
#
# Revision: 1
# Processed by: cddbd v1.4PL0 Copyright (c) Steve Scherf et al.
# Submitted via: CDex 1.50beta10
#
DISCID=7d0e9a09
DTITLE=PURE DISCO - PURE DISCO 4 [CD-1)
DYEAR=1999
DGENRE=Disco
TTITLE0=THE TEMPTATIONS - GLASSHOUSE
TTITLE1=THE COMMODORES- BRICK HOUSE
TTITLE2=BROOKLYN DREAMS (SPECIAL GUEST DONNA SUMMER) - HEAVEN KNOWS
TTITLE3=PATRICK JUVENT- I LOVE AMERICA
TTITLE4=ALEC R. COSTANDINOS- ROMEO AND JULIET
TTITLE5=PATTIE BROOKS- AFTER DARK
TTITLE6=DONNA SUMMER-  ON THE RADIO
TTITLE7=CHER- TAKE ME HOME
TTITLE8=BIONIC BOOGIE- RISKY CHANGES
EXTD=YEAR: 1999
EXTT0=
EXTT1=
EXTT2=
EXTT3=
EXTT4=
EXTT5=
EXTT6=
EXTT7=
EXTT8=
PLAYORDER=
